<?xml version="1.0" encoding="utf-8" standalone="no"?>
<!DOCTYPE svg PUBLIC "-//W3C//DTD SVG 1.1//EN"
  "http://www.w3.org/Graphics/SVG/1.1/DTD/svg11.dtd">
<svg xmlns:xlink="http://www.w3.org/1999/xlink" width="1080pt" height="288pt" viewBox="0 0 1080 288" xmlns="http://www.w3.org/2000/svg" version="1.1">
 <metadata>
  <rdf:RDF xmlns:dc="http://purl.org/dc/elements/1.1/" xmlns:cc="http://creativecommons.org/ns#" xmlns:rdf="http://www.w3.org/1999/02/22-rdf-syntax-ns#">
   <cc:Work>
    <dc:type rdf:resource="http://purl.org/dc/dcmitype/StillImage"/>
    <dc:date>2024-11-18T20:25:22.553376</dc:date>
    <dc:format>image/svg+xml</dc:format>
    <dc:creator>
     <cc:Agent>
      <dc:title>Matplotlib v3.9.2, https://matplotlib.org/</dc:title>
     </cc:Agent>
    </dc:creator>
   </cc:Work>
  </rdf:RDF>
 </metadata>
 <defs>
  <style type="text/css">*{stroke-linejoin: round; stroke-linecap: butt}</style>
 </defs>
 <g id="figure_1">
  <g id="patch_1">
   <path d="M 0 288 
L 1080 288 
L 1080 0 
L 0 0 
z
" style="fill: #f0f0f0"/>
  </g>
  <g id="axes_1">
   <g id="patch_2">
    <path d="M 45.59 254.74 
L 1067.04 254.74 
L 1067.04 40.32 
L 45.59 40.32 
z
" style="fill: #ffffff"/>
   </g>
   <g id="matplotlib.axis_1">
    <g id="xtick_1">
     <g id="line2d_1">
      <defs>
       <path id="mb094b9f798" d="M 0 0 
L 0 6 
" style="stroke: #262626; stroke-width: 1.25"/>
      </defs>
      <g>
       <use xlink:href="#mb094b9f798" x="215.831667" y="254.74" style="fill: #262626; stroke: #262626; stroke-width: 1.25"/>
      </g>
     </g>
     <g id="text_1">
      <!-- 2 -->
      <g style="fill: #262626" transform="translate(212.332292 272.598281) scale(0.11 -0.11)">
       <defs>
        <path id="DejaVuSans-32" d="M 1228 531 
L 3431 531 
L 3431 0 
L 469 0 
L 469 531 
Q 828 903 1448 1529 
Q 2069 2156 2228 2338 
Q 2531 2678 2651 2914 
Q 2772 3150 2772 3378 
Q 2772 3750 2511 3984 
Q 2250 4219 1831 4219 
Q 1534 4219 1204 4116 
Q 875 4013 500 3803 
L 500 4441 
Q 881 4594 1212 4672 
Q 1544 4750 1819 4750 
Q 2544 4750 2975 4387 
Q 3406 4025 3406 3419 
Q 3406 3131 3298 2873 
Q 3191 2616 2906 2266 
Q 2828 2175 2409 1742 
Q 1991 1309 1228 531 
z
" transform="scale(0.015625)"/>
       </defs>
       <use xlink:href="#DejaVuSans-32"/>
      </g>
     </g>
    </g>
    <g id="xtick_2">
     <g id="line2d_2">
      <g>
       <use xlink:href="#mb094b9f798" x="556.315" y="254.74" style="fill: #262626; stroke: #262626; stroke-width: 1.25"/>
      </g>
     </g>
     <g id="text_2">
      <!-- 0 -->
      <g style="fill: #262626" transform="translate(552.815625 272.598281) scale(0.11 -0.11)">
       <defs>
        <path id="DejaVuSans-30" d="M 2034 4250 
Q 1547 4250 1301 3770 
Q 1056 3291 1056 2328 
Q 1056 1369 1301 889 
Q 1547 409 2034 409 
Q 2525 409 2770 889 
Q 3016 1369 3016 2328 
Q 3016 3291 2770 3770 
Q 2525 4250 2034 4250 
z
M 2034 4750 
Q 2819 4750 3233 4129 
Q 3647 3509 3647 2328 
Q 3647 1150 3233 529 
Q 2819 -91 2034 -91 
Q 1250 -91 836 529 
Q 422 1150 422 2328 
Q 422 3509 836 4129 
Q 1250 4750 2034 4750 
z
" transform="scale(0.015625)"/>
       </defs>
       <use xlink:href="#DejaVuSans-30"/>
      </g>
     </g>
    </g>
    <g id="xtick_3">
     <g id="line2d_3">
      <g>
       <use xlink:href="#mb094b9f798" x="896.798333" y="254.74" style="fill: #262626; stroke: #262626; stroke-width: 1.25"/>
      </g>
     </g>
     <g id="text_3">
      <!-- 41.9136 -->
      <g style="fill: #262626" transform="translate(874.054115 272.598281) scale(0.11 -0.11)">
       <defs>
        <path id="DejaVuSans-34" d="M 2419 4116 
L 825 1625 
L 2419 1625 
L 2419 4116 
z
M 2253 4666 
L 3047 4666 
L 3047 1625 
L 3713 1625 
L 3713 1100 
L 3047 1100 
L 3047 0 
L 2419 0 
L 2419 1100 
L 313 1100 
L 313 1709 
L 2253 4666 
z
" transform="scale(0.015625)"/>
        <path id="DejaVuSans-31" d="M 794 531 
L 1825 531 
L 1825 4091 
L 703 3866 
L 703 4441 
L 1819 4666 
L 2450 4666 
L 2450 531 
L 3481 531 
L 3481 0 
L 794 0 
L 794 531 
z
" transform="scale(0.015625)"/>
        <path id="DejaVuSans-2e" d="M 684 794 
L 1344 794 
L 1344 0 
L 684 0 
L 684 794 
z
" transform="scale(0.015625)"/>
        <path id="DejaVuSans-39" d="M 703 97 
L 703 672 
Q 941 559 1184 500 
Q 1428 441 1663 441 
Q 2288 441 2617 861 
Q 2947 1281 2994 2138 
Q 2813 1869 2534 1725 
Q 2256 1581 1919 1581 
Q 1219 1581 811 2004 
Q 403 2428 403 3163 
Q 403 3881 828 4315 
Q 1253 4750 1959 4750 
Q 2769 4750 3195 4129 
Q 3622 3509 3622 2328 
Q 3622 1225 3098 567 
Q 2575 -91 1691 -91 
Q 1453 -91 1209 -44 
Q 966 3 703 97 
z
M 1959 2075 
Q 2384 2075 2632 2365 
Q 2881 2656 2881 3163 
Q 2881 3666 2632 3958 
Q 2384 4250 1959 4250 
Q 1534 4250 1286 3958 
Q 1038 3666 1038 3163 
Q 1038 2656 1286 2365 
Q 1534 2075 1959 2075 
z
" transform="scale(0.015625)"/>
        <path id="DejaVuSans-33" d="M 2597 2516 
Q 3050 2419 3304 2112 
Q 3559 1806 3559 1356 
Q 3559 666 3084 287 
Q 2609 -91 1734 -91 
Q 1441 -91 1130 -33 
Q 819 25 488 141 
L 488 750 
Q 750 597 1062 519 
Q 1375 441 1716 441 
Q 2309 441 2620 675 
Q 2931 909 2931 1356 
Q 2931 1769 2642 2001 
Q 2353 2234 1838 2234 
L 1294 2234 
L 1294 2753 
L 1863 2753 
Q 2328 2753 2575 2939 
Q 2822 3125 2822 3475 
Q 2822 3834 2567 4026 
Q 2313 4219 1838 4219 
Q 1578 4219 1281 4162 
Q 984 4106 628 3988 
L 628 4550 
Q 988 4650 1302 4700 
Q 1616 4750 1894 4750 
Q 2613 4750 3031 4423 
Q 3450 4097 3450 3541 
Q 3450 3153 3228 2886 
Q 3006 2619 2597 2516 
z
" transform="scale(0.015625)"/>
        <path id="DejaVuSans-36" d="M 2113 2584 
Q 1688 2584 1439 2293 
Q 1191 2003 1191 1497 
Q 1191 994 1439 701 
Q 1688 409 2113 409 
Q 2538 409 2786 701 
Q 3034 994 3034 1497 
Q 3034 2003 2786 2293 
Q 2538 2584 2113 2584 
z
M 3366 4563 
L 3366 3988 
Q 3128 4100 2886 4159 
Q 2644 4219 2406 4219 
Q 1781 4219 1451 3797 
Q 1122 3375 1075 2522 
Q 1259 2794 1537 2939 
Q 1816 3084 2150 3084 
Q 2853 3084 3261 2657 
Q 3669 2231 3669 1497 
Q 3669 778 3244 343 
Q 2819 -91 2113 -91 
Q 1303 -91 875 529 
Q 447 1150 447 2328 
Q 447 3434 972 4092 
Q 1497 4750 2381 4750 
Q 2619 4750 2861 4703 
Q 3103 4656 3366 4563 
z
" transform="scale(0.015625)"/>
       </defs>
       <use xlink:href="#DejaVuSans-34"/>
       <use xlink:href="#DejaVuSans-31" x="63.623047"/>
       <use xlink:href="#DejaVuSans-2e" x="127.246094"/>
       <use xlink:href="#DejaVuSans-39" x="159.033203"/>
       <use xlink:href="#DejaVuSans-31" x="222.65625"/>
       <use xlink:href="#DejaVuSans-33" x="286.279297"/>
       <use xlink:href="#DejaVuSans-36" x="349.902344"/>
      </g>
     </g>
    </g>
   </g>
   <g id="matplotlib.axis_2">
    <g id="ytick_1">
     <g id="line2d_4">
      <defs>
       <path id="m53d6bef176" d="M 0 0 
L -6 0 
" style="stroke: #262626; stroke-width: 1.25"/>
      </defs>
      <g>
       <use xlink:href="#m53d6bef176" x="45.59" y="248.525832" style="fill: #262626; stroke: #262626; stroke-width: 1.25"/>
      </g>
     </g>
     <g id="text_4">
      <!-- −30 -->
      <g style="fill: #262626" transform="translate(12.874844 252.704973) scale(0.11 -0.11)">
       <defs>
        <path id="DejaVuSans-2212" d="M 678 2272 
L 4684 2272 
L 4684 1741 
L 678 1741 
L 678 2272 
z
" transform="scale(0.015625)"/>
       </defs>
       <use xlink:href="#DejaVuSans-2212"/>
       <use xlink:href="#DejaVuSans-33" x="83.789062"/>
       <use xlink:href="#DejaVuSans-30" x="147.412109"/>
      </g>
     </g>
    </g>
    <g id="ytick_2">
     <g id="line2d_5">
      <g>
       <use xlink:href="#m53d6bef176" x="45.59" y="223.083425" style="fill: #262626; stroke: #262626; stroke-width: 1.25"/>
      </g>
     </g>
     <g id="text_5">
      <!-- −20 -->
      <g style="fill: #262626" transform="translate(12.874844 227.262566) scale(0.11 -0.11)">
       <use xlink:href="#DejaVuSans-2212"/>
       <use xlink:href="#DejaVuSans-32" x="83.789062"/>
       <use xlink:href="#DejaVuSans-30" x="147.412109"/>
      </g>
     </g>
    </g>
    <g id="ytick_3">
     <g id="line2d_6">
      <g>
       <use xlink:href="#m53d6bef176" x="45.59" y="197.641018" style="fill: #262626; stroke: #262626; stroke-width: 1.25"/>
      </g>
     </g>
     <g id="text_6">
      <!-- −10 -->
      <g style="fill: #262626" transform="translate(12.874844 201.820158) scale(0.11 -0.11)">
       <use xlink:href="#DejaVuSans-2212"/>
       <use xlink:href="#DejaVuSans-31" x="83.789062"/>
       <use xlink:href="#DejaVuSans-30" x="147.412109"/>
      </g>
     </g>
    </g>
    <g id="ytick_4">
     <g id="line2d_7">
      <g>
       <use xlink:href="#m53d6bef176" x="45.59" y="172.19861" style="fill: #262626; stroke: #262626; stroke-width: 1.25"/>
      </g>
     </g>
     <g id="text_7">
      <!-- 0 -->
      <g style="fill: #262626" transform="translate(29.09125 176.377751) scale(0.11 -0.11)">
       <use xlink:href="#DejaVuSans-30"/>
      </g>
     </g>
    </g>
    <g id="ytick_5">
     <g id="line2d_8">
      <g>
       <use xlink:href="#m53d6bef176" x="45.59" y="146.756203" style="fill: #262626; stroke: #262626; stroke-width: 1.25"/>
      </g>
     </g>
     <g id="text_8">
      <!-- 10 -->
      <g style="fill: #262626" transform="translate(22.0925 150.935344) scale(0.11 -0.11)">
       <use xlink:href="#DejaVuSans-31"/>
       <use xlink:href="#DejaVuSans-30" x="63.623047"/>
      </g>
     </g>
    </g>
    <g id="ytick_6">
     <g id="line2d_9">
      <g>
       <use xlink:href="#m53d6bef176" x="45.59" y="121.313796" style="fill: #262626; stroke: #262626; stroke-width: 1.25"/>
      </g>
     </g>
     <g id="text_9">
      <!-- 20 -->
      <g style="fill: #262626" transform="translate(22.0925 125.492936) scale(0.11 -0.11)">
       <use xlink:href="#DejaVuSans-32"/>
       <use xlink:href="#DejaVuSans-30" x="63.623047"/>
      </g>
     </g>
    </g>
    <g id="ytick_7">
     <g id="line2d_10">
      <g>
       <use xlink:href="#m53d6bef176" x="45.59" y="95.871388" style="fill: #262626; stroke: #262626; stroke-width: 1.25"/>
      </g>
     </g>
     <g id="text_10">
      <!-- 30 -->
      <g style="fill: #262626" transform="translate(22.0925 100.050529) scale(0.11 -0.11)">
       <use xlink:href="#DejaVuSans-33"/>
       <use xlink:href="#DejaVuSans-30" x="63.623047"/>
      </g>
     </g>
    </g>
    <g id="ytick_8">
     <g id="line2d_11">
      <g>
       <use xlink:href="#m53d6bef176" x="45.59" y="70.428981" style="fill: #262626; stroke: #262626; stroke-width: 1.25"/>
      </g>
     </g>
     <g id="text_11">
      <!-- 40 -->
      <g style="fill: #262626" transform="translate(22.0925 74.608122) scale(0.11 -0.11)">
       <use xlink:href="#DejaVuSans-34"/>
       <use xlink:href="#DejaVuSans-30" x="63.623047"/>
      </g>
     </g>
    </g>
    <g id="ytick_9">
     <g id="line2d_12">
      <g>
       <use xlink:href="#m53d6bef176" x="45.59" y="44.986574" style="fill: #262626; stroke: #262626; stroke-width: 1.25"/>
      </g>
     </g>
     <g id="text_12">
      <!-- 50 -->
      <g style="fill: #262626" transform="translate(22.0925 49.165714) scale(0.11 -0.11)">
       <defs>
        <path id="DejaVuSans-35" d="M 691 4666 
L 3169 4666 
L 3169 4134 
L 1269 4134 
L 1269 2991 
Q 1406 3038 1543 3061 
Q 1681 3084 1819 3084 
Q 2600 3084 3056 2656 
Q 3513 2228 3513 1497 
Q 3513 744 3044 326 
Q 2575 -91 1722 -91 
Q 1428 -91 1123 -41 
Q 819 9 494 109 
L 494 744 
Q 775 591 1075 516 
Q 1375 441 1709 441 
Q 2250 441 2565 725 
Q 2881 1009 2881 1497 
Q 2881 1984 2565 2268 
Q 2250 2553 1709 2553 
Q 1456 2553 1204 2497 
Q 953 2441 691 2322 
L 691 4666 
z
" transform="scale(0.015625)"/>
       </defs>
       <use xlink:href="#DejaVuSans-35"/>
       <use xlink:href="#DejaVuSans-30" x="63.623047"/>
      </g>
     </g>
    </g>
   </g>
   <g id="PolyCollection_1">
    <defs>
     <path id="mb0b2f3662e" d="M 220.09992 -114.101757 
L 211.563413 -114.101757 
L 79.638333 -115.352584 
L 166.415572 -116.603411 
L 210.048881 -117.854238 
L 215.05505 -119.105065 
L 215.831234 -120.355892 
L 215.831667 -121.606719 
L 215.831667 -122.857546 
L 215.831667 -124.108373 
L 215.831667 -125.3592 
L 215.831667 -126.610027 
L 215.831667 -127.860854 
L 215.831667 -129.111681 
L 215.831667 -130.362508 
L 215.831667 -131.613336 
L 215.831667 -132.864163 
L 215.831667 -134.11499 
L 215.831667 -135.365817 
L 215.831667 -136.616644 
L 215.831667 -137.867471 
L 215.831667 -139.118298 
L 215.831667 -140.369125 
L 215.831667 -141.619952 
L 215.831667 -142.870779 
L 215.831667 -144.121606 
L 215.831667 -145.372433 
L 215.831667 -146.62326 
L 215.831665 -147.874087 
L 215.820487 -149.124914 
L 215.827752 -150.375742 
L 215.831667 -151.626569 
L 215.831667 -152.877396 
L 215.831667 -154.128223 
L 215.831667 -155.37905 
L 215.831667 -156.629877 
L 215.831667 -157.880704 
L 215.831667 -159.131531 
L 215.831667 -160.382358 
L 215.831667 -161.633185 
L 215.831667 -162.884012 
L 215.831667 -164.134839 
L 215.831667 -165.385666 
L 215.831667 -166.636493 
L 215.831667 -167.887321 
L 215.831667 -169.138148 
L 215.831667 -170.388975 
L 215.831667 -171.639802 
L 215.831667 -172.890629 
L 215.831667 -174.141456 
L 215.831667 -175.392283 
L 215.831667 -176.64311 
L 215.831667 -177.893937 
L 215.831667 -179.144764 
L 215.831667 -180.395591 
L 215.831667 -181.646418 
L 215.831667 -182.897245 
L 215.831667 -184.148072 
L 215.831667 -185.398899 
L 215.831667 -186.649727 
L 215.831667 -187.900554 
L 215.831667 -189.151381 
L 215.831667 -190.402208 
L 215.831667 -191.653035 
L 215.831667 -192.903862 
L 215.831667 -194.154689 
L 215.831667 -195.405516 
L 215.831667 -196.656343 
L 215.831667 -197.90717 
L 215.831667 -199.157997 
L 215.831661 -200.408824 
L 215.807484 -201.659651 
L 215.824778 -202.910478 
L 215.831667 -204.161306 
L 215.831667 -205.412133 
L 215.831667 -206.66296 
L 215.831667 -207.913787 
L 215.831667 -209.164614 
L 215.831667 -210.415441 
L 215.831667 -211.666268 
L 215.831667 -212.917095 
L 215.831667 -214.167922 
L 215.831667 -215.418749 
L 215.831667 -216.669576 
L 215.831667 -217.920403 
L 215.831667 -219.17123 
L 215.831667 -220.422057 
L 215.831667 -221.672884 
L 215.831667 -222.923712 
L 215.831667 -224.174539 
L 215.831667 -225.425366 
L 215.831667 -226.676193 
L 215.831667 -227.92702 
L 215.831667 -229.177847 
L 215.831667 -230.428674 
L 215.831667 -231.679501 
L 215.831667 -232.930328 
L 215.831667 -234.181155 
L 215.831656 -235.431982 
L 215.793539 -236.682809 
L 215.822201 -237.933636 
L 215.841132 -237.933636 
L 215.841132 -237.933636 
L 215.869794 -236.682809 
L 215.831677 -235.431982 
L 215.831667 -234.181155 
L 215.831667 -232.930328 
L 215.831667 -231.679501 
L 215.831667 -230.428674 
L 215.831667 -229.177847 
L 215.831667 -227.92702 
L 215.831667 -226.676193 
L 215.831667 -225.425366 
L 215.831667 -224.174539 
L 215.831667 -222.923712 
L 215.831667 -221.672884 
L 215.831667 -220.422057 
L 215.831667 -219.17123 
L 215.831667 -217.920403 
L 215.831667 -216.669576 
L 215.831667 -215.418749 
L 215.831667 -214.167922 
L 215.831667 -212.917095 
L 215.831667 -211.666268 
L 215.831667 -210.415441 
L 215.831667 -209.164614 
L 215.831667 -207.913787 
L 215.831667 -206.66296 
L 215.831667 -205.412133 
L 215.831667 -204.161306 
L 215.838555 -202.910478 
L 215.855849 -201.659651 
L 215.831672 -200.408824 
L 215.831667 -199.157997 
L 215.831667 -197.90717 
L 215.831667 -196.656343 
L 215.831667 -195.405516 
L 215.831667 -194.154689 
L 215.831667 -192.903862 
L 215.831667 -191.653035 
L 215.831667 -190.402208 
L 215.831667 -189.151381 
L 215.831667 -187.900554 
L 215.831667 -186.649727 
L 215.831667 -185.398899 
L 215.831667 -184.148072 
L 215.831667 -182.897245 
L 215.831667 -181.646418 
L 215.831667 -180.395591 
L 215.831667 -179.144764 
L 215.831667 -177.893937 
L 215.831667 -176.64311 
L 215.831667 -175.392283 
L 215.831667 -174.141456 
L 215.831667 -172.890629 
L 215.831667 -171.639802 
L 215.831667 -170.388975 
L 215.831667 -169.138148 
L 215.831667 -167.887321 
L 215.831667 -166.636493 
L 215.831667 -165.385666 
L 215.831667 -164.134839 
L 215.831667 -162.884012 
L 215.831667 -161.633185 
L 215.831667 -160.382358 
L 215.831667 -159.131531 
L 215.831667 -157.880704 
L 215.831667 -156.629877 
L 215.831667 -155.37905 
L 215.831667 -154.128223 
L 215.831667 -152.877396 
L 215.831667 -151.626569 
L 215.835581 -150.375742 
L 215.842846 -149.124914 
L 215.831669 -147.874087 
L 215.831667 -146.62326 
L 215.831667 -145.372433 
L 215.831667 -144.121606 
L 215.831667 -142.870779 
L 215.831667 -141.619952 
L 215.831667 -140.369125 
L 215.831667 -139.118298 
L 215.831667 -137.867471 
L 215.831667 -136.616644 
L 215.831667 -135.365817 
L 215.831667 -134.11499 
L 215.831667 -132.864163 
L 215.831667 -131.613336 
L 215.831667 -130.362508 
L 215.831667 -129.111681 
L 215.831667 -127.860854 
L 215.831667 -126.610027 
L 215.831667 -125.3592 
L 215.831667 -124.108373 
L 215.831667 -122.857546 
L 215.831667 -121.606719 
L 215.8321 -120.355892 
L 216.608283 -119.105065 
L 221.614453 -117.854238 
L 265.247761 -116.603411 
L 352.025 -115.352584 
L 220.09992 -114.101757 
z
" style="stroke: #484848; stroke-width: 3"/>
    </defs>
    <g clip-path="url(#ped8da4aac9)">
     <use xlink:href="#mb0b2f3662e" x="0" y="288" style="fill: #cb3335; stroke: #484848; stroke-width: 3"/>
    </g>
   </g>
   <g id="PolyCollection_2">
    <defs>
     <path id="m01f2805205" d="M 574.949099 -113.351446 
L 537.680901 -113.351446 
L 420.121667 -114.09707 
L 521.407343 -114.842695 
L 522.342135 -115.58832 
L 454.508699 -116.333945 
L 538.925768 -117.079569 
L 550.270329 -117.825194 
L 551.060725 -118.570819 
L 553.906624 -119.316443 
L 552.825332 -120.062068 
L 549.838045 -120.807693 
L 544.444075 -121.553318 
L 547.13528 -122.298942 
L 553.816232 -123.044567 
L 556.290373 -123.790192 
L 556.314992 -124.535817 
L 556.315 -125.281441 
L 556.315 -126.027066 
L 556.315 -126.772691 
L 556.315 -127.518316 
L 556.315 -128.26394 
L 556.315 -129.009565 
L 556.315 -129.75519 
L 556.315 -130.500814 
L 556.315 -131.246439 
L 556.315 -131.992064 
L 556.315 -132.737689 
L 556.314846 -133.483313 
L 556.304004 -134.228938 
L 556.289215 -134.974563 
L 556.313019 -135.720188 
L 556.314995 -136.465812 
L 556.315 -137.211437 
L 556.315 -137.957062 
L 556.315 -138.702687 
L 556.315 -139.448311 
L 556.315 -140.193936 
L 556.315 -140.939561 
L 556.315 -141.685186 
L 556.315 -142.43081 
L 556.315 -143.176435 
L 556.315 -143.92206 
L 556.315 -144.667684 
L 556.315 -145.413309 
L 556.315 -146.158934 
L 556.315 -146.904559 
L 556.315 -147.650183 
L 556.315 -148.395808 
L 556.315 -149.141433 
L 556.315 -149.887058 
L 556.315 -150.632682 
L 556.315 -151.378307 
L 556.315 -152.123932 
L 556.315 -152.869557 
L 556.314999 -153.615181 
L 556.314071 -154.360806 
L 556.293669 -155.106431 
L 556.298944 -155.852055 
L 556.314604 -156.59768 
L 556.315 -157.343305 
L 556.315 -158.08893 
L 556.315 -158.834554 
L 556.315 -159.580179 
L 556.315 -160.325804 
L 556.315 -161.071429 
L 556.315 -161.817053 
L 556.315 -162.562678 
L 556.315 -163.308303 
L 556.314995 -164.053928 
L 556.313019 -164.799552 
L 556.289215 -165.545177 
L 556.304004 -166.290802 
L 556.314846 -167.036426 
L 556.315 -167.782051 
L 556.315 -168.527676 
L 556.315 -169.273301 
L 556.315 -170.018925 
L 556.315 -170.76455 
L 556.315 -171.510175 
L 556.315 -172.2558 
L 556.315 -173.001424 
L 556.315 -173.747049 
L 556.315 -174.492674 
L 556.315 -175.238299 
L 556.315 -175.983923 
L 556.315 -176.729548 
L 556.315 -177.475173 
L 556.315 -178.220798 
L 556.315 -178.966422 
L 556.315 -179.712047 
L 556.315 -180.457672 
L 556.315 -181.203296 
L 556.315 -181.948921 
L 556.315 -182.694546 
L 556.315 -183.440171 
L 556.315 -184.185795 
L 556.31484 -184.93142 
L 556.294616 -185.677045 
L 556.229852 -186.42267 
L 556.303344 -187.168294 
L 556.326656 -187.168294 
L 556.326656 -187.168294 
L 556.400148 -186.42267 
L 556.335384 -185.677045 
L 556.31516 -184.93142 
L 556.315 -184.185795 
L 556.315 -183.440171 
L 556.315 -182.694546 
L 556.315 -181.948921 
L 556.315 -181.203296 
L 556.315 -180.457672 
L 556.315 -179.712047 
L 556.315 -178.966422 
L 556.315 -178.220798 
L 556.315 -177.475173 
L 556.315 -176.729548 
L 556.315 -175.983923 
L 556.315 -175.238299 
L 556.315 -174.492674 
L 556.315 -173.747049 
L 556.315 -173.001424 
L 556.315 -172.2558 
L 556.315 -171.510175 
L 556.315 -170.76455 
L 556.315 -170.018925 
L 556.315 -169.273301 
L 556.315 -168.527676 
L 556.315 -167.782051 
L 556.315154 -167.036426 
L 556.325996 -166.290802 
L 556.340785 -165.545177 
L 556.316981 -164.799552 
L 556.315005 -164.053928 
L 556.315 -163.308303 
L 556.315 -162.562678 
L 556.315 -161.817053 
L 556.315 -161.071429 
L 556.315 -160.325804 
L 556.315 -159.580179 
L 556.315 -158.834554 
L 556.315 -158.08893 
L 556.315 -157.343305 
L 556.315396 -156.59768 
L 556.331056 -155.852055 
L 556.336331 -155.106431 
L 556.315929 -154.360806 
L 556.315001 -153.615181 
L 556.315 -152.869557 
L 556.315 -152.123932 
L 556.315 -151.378307 
L 556.315 -150.632682 
L 556.315 -149.887058 
L 556.315 -149.141433 
L 556.315 -148.395808 
L 556.315 -147.650183 
L 556.315 -146.904559 
L 556.315 -146.158934 
L 556.315 -145.413309 
L 556.315 -144.667684 
L 556.315 -143.92206 
L 556.315 -143.176435 
L 556.315 -142.43081 
L 556.315 -141.685186 
L 556.315 -140.939561 
L 556.315 -140.193936 
L 556.315 -139.448311 
L 556.315 -138.702687 
L 556.315 -137.957062 
L 556.315 -137.211437 
L 556.315005 -136.465812 
L 556.316981 -135.720188 
L 556.340785 -134.974563 
L 556.325996 -134.228938 
L 556.315154 -133.483313 
L 556.315 -132.737689 
L 556.315 -131.992064 
L 556.315 -131.246439 
L 556.315 -130.500814 
L 556.315 -129.75519 
L 556.315 -129.009565 
L 556.315 -128.26394 
L 556.315 -127.518316 
L 556.315 -126.772691 
L 556.315 -126.027066 
L 556.315 -125.281441 
L 556.315008 -124.535817 
L 556.339627 -123.790192 
L 558.813768 -123.044567 
L 565.49472 -122.298942 
L 568.185925 -121.553318 
L 562.791955 -120.807693 
L 559.804668 -120.062068 
L 558.723376 -119.316443 
L 561.569275 -118.570819 
L 562.359671 -117.825194 
L 573.704232 -117.079569 
L 658.121301 -116.333945 
L 590.287865 -115.58832 
L 591.222657 -114.842695 
L 692.508333 -114.09707 
L 574.949099 -113.351446 
z
" style="stroke: #484848; stroke-width: 3"/>
    </defs>
    <g clip-path="url(#ped8da4aac9)">
     <use xlink:href="#m01f2805205" x="0" y="288" style="fill: #477ca8; stroke: #484848; stroke-width: 3"/>
    </g>
   </g>
   <g id="PolyCollection_3">
    <defs>
     <path id="m714f322d27" d="M 896.802822 -43.006364 
L 896.793845 -43.006364 
L 896.794832 -44.668152 
L 896.798333 -46.32994 
L 896.798333 -47.991728 
L 896.798333 -49.653516 
L 896.798333 -51.315304 
L 896.798333 -52.977092 
L 896.798333 -54.63888 
L 896.798333 -56.300669 
L 896.798333 -57.962457 
L 896.798333 -59.624245 
L 896.798333 -61.286033 
L 896.798333 -62.947821 
L 896.798333 -64.609609 
L 896.798333 -66.271397 
L 896.798333 -67.933185 
L 896.798333 -69.594974 
L 896.798333 -71.256762 
L 896.795073 -72.91855 
L 896.786394 -74.580338 
L 896.796326 -76.242126 
L 896.78971 -77.903914 
L 896.796799 -79.565702 
L 896.798333 -81.22749 
L 896.793376 -82.889279 
L 896.795191 -84.551067 
L 896.787637 -86.212855 
L 896.797251 -87.874643 
L 896.797573 -89.536431 
L 896.785405 -91.198219 
L 896.798333 -92.860007 
L 896.788801 -94.521795 
L 896.768585 -96.183584 
L 896.779914 -97.845372 
L 896.765627 -99.50716 
L 896.745886 -101.168948 
L 896.707044 -102.830736 
L 896.663364 -104.492524 
L 896.734975 -106.154312 
L 896.6609 -107.8161 
L 896.515571 -109.477889 
L 895.940863 -111.139677 
L 895.08351 -112.801465 
L 879.25591 -114.463253 
L 760.605 -116.125041 
L 889.303898 -117.786829 
L 894.098109 -119.448617 
L 896.029831 -121.110405 
L 896.162102 -122.772193 
L 896.483892 -124.433982 
L 896.646886 -126.09577 
L 896.669918 -127.757558 
L 896.684137 -129.419346 
L 896.613761 -131.081134 
L 896.783639 -132.742922 
L 896.79255 -134.40471 
L 896.734521 -136.066498 
L 896.785665 -137.728287 
L 896.753921 -139.390075 
L 896.738722 -141.051863 
L 896.762267 -142.713651 
L 896.792012 -144.375439 
L 896.767054 -146.037227 
L 896.798332 -147.699015 
L 896.788849 -149.360803 
L 896.79701 -151.022592 
L 896.798333 -152.68438 
L 896.798333 -154.346168 
L 896.798333 -156.007956 
L 896.77771 -157.669744 
L 896.798098 -159.331532 
L 896.798333 -160.99332 
L 896.798333 -162.655108 
L 896.798287 -164.316897 
L 896.768998 -165.978685 
L 896.798315 -167.640473 
L 896.76363 -169.302261 
L 896.792107 -170.964049 
L 896.798333 -172.625837 
L 896.798333 -174.287625 
L 896.798333 -175.949413 
L 896.798333 -177.611202 
L 896.798333 -179.27299 
L 896.798333 -180.934778 
L 896.798333 -182.596566 
L 896.798333 -184.258354 
L 896.798333 -185.920142 
L 896.795423 -187.58193 
L 896.793029 -189.243718 
L 896.798333 -190.905506 
L 896.798333 -192.567295 
L 896.798333 -194.229083 
L 896.798333 -195.890871 
L 896.798333 -197.552659 
L 896.798333 -199.214447 
L 896.798333 -200.876235 
L 896.798333 -202.538023 
L 896.798333 -204.199811 
L 896.794832 -205.8616 
L 896.793845 -207.523388 
L 896.802822 -207.523388 
L 896.802822 -207.523388 
L 896.801834 -205.8616 
L 896.798333 -204.199811 
L 896.798333 -202.538023 
L 896.798333 -200.876235 
L 896.798333 -199.214447 
L 896.798333 -197.552659 
L 896.798333 -195.890871 
L 896.798333 -194.229083 
L 896.798333 -192.567295 
L 896.798333 -190.905506 
L 896.803638 -189.243718 
L 896.801244 -187.58193 
L 896.798333 -185.920142 
L 896.798333 -184.258354 
L 896.798333 -182.596566 
L 896.798333 -180.934778 
L 896.798333 -179.27299 
L 896.798333 -177.611202 
L 896.798333 -175.949413 
L 896.798333 -174.287625 
L 896.798333 -172.625837 
L 896.80456 -170.964049 
L 896.833036 -169.302261 
L 896.798351 -167.640473 
L 896.827669 -165.978685 
L 896.79838 -164.316897 
L 896.798333 -162.655108 
L 896.798333 -160.99332 
L 896.798569 -159.331532 
L 896.818957 -157.669744 
L 896.798333 -156.007956 
L 896.798333 -154.346168 
L 896.798333 -152.68438 
L 896.799657 -151.022592 
L 896.807818 -149.360803 
L 896.798335 -147.699015 
L 896.829613 -146.037227 
L 896.804654 -144.375439 
L 896.8344 -142.713651 
L 896.857944 -141.051863 
L 896.842746 -139.390075 
L 896.811001 -137.728287 
L 896.862146 -136.066498 
L 896.804116 -134.40471 
L 896.813028 -132.742922 
L 896.982906 -131.081134 
L 896.91253 -129.419346 
L 896.926748 -127.757558 
L 896.949781 -126.09577 
L 897.112774 -124.433982 
L 897.434565 -122.772193 
L 897.566835 -121.110405 
L 899.498558 -119.448617 
L 904.292768 -117.786829 
L 1032.991667 -116.125041 
L 914.340757 -114.463253 
L 898.513157 -112.801465 
L 897.655803 -111.139677 
L 897.081096 -109.477889 
L 896.935767 -107.8161 
L 896.861691 -106.154312 
L 896.933303 -104.492524 
L 896.889623 -102.830736 
L 896.85078 -101.168948 
L 896.83104 -99.50716 
L 896.816753 -97.845372 
L 896.828082 -96.183584 
L 896.807866 -94.521795 
L 896.798333 -92.860007 
L 896.811261 -91.198219 
L 896.799094 -89.536431 
L 896.799416 -87.874643 
L 896.80903 -86.212855 
L 896.801476 -84.551067 
L 896.80329 -82.889279 
L 896.798333 -81.22749 
L 896.799868 -79.565702 
L 896.806957 -77.903914 
L 896.800341 -76.242126 
L 896.810273 -74.580338 
L 896.801593 -72.91855 
L 896.798333 -71.256762 
L 896.798333 -69.594974 
L 896.798333 -67.933185 
L 896.798333 -66.271397 
L 896.798333 -64.609609 
L 896.798333 -62.947821 
L 896.798333 -61.286033 
L 896.798333 -59.624245 
L 896.798333 -57.962457 
L 896.798333 -56.300669 
L 896.798333 -54.63888 
L 896.798333 -52.977092 
L 896.798333 -51.315304 
L 896.798333 -49.653516 
L 896.798333 -47.991728 
L 896.798333 -46.32994 
L 896.801834 -44.668152 
L 896.802822 -43.006364 
z
" style="stroke: #484848; stroke-width: 3"/>
    </defs>
    <g clip-path="url(#ped8da4aac9)">
     <use xlink:href="#m714f322d27" x="0" y="288" style="fill: #59a257; stroke: #484848; stroke-width: 3"/>
    </g>
   </g>
   <g id="line2d_13">
    <path d="M 215.831667 173.091661 
L 215.831667 170.693711 
" clip-path="url(#ped8da4aac9)" style="fill: none; stroke: #484848; stroke-width: 4.5; stroke-linecap: round"/>
   </g>
   <g id="line2d_14">
    <path d="M 215.831667 172.791917 
L 215.831667 171.892686 
" clip-path="url(#ped8da4aac9)" style="fill: none; stroke: #484848; stroke-width: 13.5; stroke-linecap: round"/>
   </g>
   <g id="line2d_15">
    <path d="M 215.831667 172.492173 
" clip-path="url(#ped8da4aac9)" style="fill: none; stroke: #484848; stroke-width: 1.5; stroke-linecap: round"/>
    <defs>
     <path id="m1f76b8671e" d="M 5.625 0 
L -5.625 -0 
" style="stroke: #ffffff; stroke-width: 2.7"/>
    </defs>
    <g clip-path="url(#ped8da4aac9)">
     <use xlink:href="#m1f76b8671e" x="215.831667" y="172.492173" style="fill: #ffffff; stroke: #ffffff; stroke-width: 2.7"/>
    </g>
   </g>
   <g id="line2d_16">
    <path d="M 556.315 173.841971 
L 556.315 168.684566 
" clip-path="url(#ped8da4aac9)" style="fill: none; stroke: #484848; stroke-width: 4.5; stroke-linecap: round"/>
   </g>
   <g id="line2d_17">
    <path d="M 556.315 173.841971 
L 556.315 171.779009 
" clip-path="url(#ped8da4aac9)" style="fill: none; stroke: #484848; stroke-width: 13.5; stroke-linecap: round"/>
   </g>
   <g id="line2d_18">
    <path d="M 556.315 171.779009 
" clip-path="url(#ped8da4aac9)" style="fill: none; stroke: #484848; stroke-width: 1.5; stroke-linecap: round"/>
    <g clip-path="url(#ped8da4aac9)">
     <use xlink:href="#m1f76b8671e" x="556.315" y="171.779009" style="fill: #ffffff; stroke: #ffffff; stroke-width: 2.7"/>
    </g>
   </g>
   <g id="line2d_19">
    <path d="M 896.798333 172.939844 
L 896.798333 171.743112 
" clip-path="url(#ped8da4aac9)" style="fill: none; stroke: #484848; stroke-width: 4.5; stroke-linecap: round"/>
   </g>
   <g id="line2d_20">
    <path d="M 896.798333 172.490643 
L 896.798333 172.191147 
" clip-path="url(#ped8da4aac9)" style="fill: none; stroke: #484848; stroke-width: 13.5; stroke-linecap: round"/>
   </g>
   <g id="line2d_21">
    <path d="M 896.798333 172.415594 
" clip-path="url(#ped8da4aac9)" style="fill: none; stroke: #484848; stroke-width: 1.5; stroke-linecap: round"/>
    <g clip-path="url(#ped8da4aac9)">
     <use xlink:href="#m1f76b8671e" x="896.798333" y="172.415594" style="fill: #ffffff; stroke: #ffffff; stroke-width: 2.7"/>
    </g>
   </g>
   <g id="patch_3">
    <path d="M 45.59 254.74 
L 45.59 40.32 
" style="fill: none; stroke: #262626; stroke-width: 1.25; stroke-linejoin: miter; stroke-linecap: square"/>
   </g>
   <g id="patch_4">
    <path d="M 1067.04 254.74 
L 1067.04 40.32 
" style="fill: none; stroke: #262626; stroke-width: 1.25; stroke-linejoin: miter; stroke-linecap: square"/>
   </g>
   <g id="patch_5">
    <path d="M 45.59 254.74 
L 1067.04 254.74 
" style="fill: none; stroke: #262626; stroke-width: 1.25; stroke-linejoin: miter; stroke-linecap: square"/>
   </g>
   <g id="patch_6">
    <path d="M 45.59 40.32 
L 1067.04 40.32 
" style="fill: none; stroke: #262626; stroke-width: 1.25; stroke-linejoin: miter; stroke-linecap: square"/>
   </g>
  </g>
  <g id="text_13">
   <!-- Violin Plot of all Continuous Variables -->
   <g style="fill: #262626" transform="translate(400.766016 17.157656) scale(0.15 -0.15)">
    <defs>
     <path id="DejaVuSans-56" d="M 1831 0 
L 50 4666 
L 709 4666 
L 2188 738 
L 3669 4666 
L 4325 4666 
L 2547 0 
L 1831 0 
z
" transform="scale(0.015625)"/>
     <path id="DejaVuSans-69" d="M 603 3500 
L 1178 3500 
L 1178 0 
L 603 0 
L 603 3500 
z
M 603 4863 
L 1178 4863 
L 1178 4134 
L 603 4134 
L 603 4863 
z
" transform="scale(0.015625)"/>
     <path id="DejaVuSans-6f" d="M 1959 3097 
Q 1497 3097 1228 2736 
Q 959 2375 959 1747 
Q 959 1119 1226 758 
Q 1494 397 1959 397 
Q 2419 397 2687 759 
Q 2956 1122 2956 1747 
Q 2956 2369 2687 2733 
Q 2419 3097 1959 3097 
z
M 1959 3584 
Q 2709 3584 3137 3096 
Q 3566 2609 3566 1747 
Q 3566 888 3137 398 
Q 2709 -91 1959 -91 
Q 1206 -91 779 398 
Q 353 888 353 1747 
Q 353 2609 779 3096 
Q 1206 3584 1959 3584 
z
" transform="scale(0.015625)"/>
     <path id="DejaVuSans-6c" d="M 603 4863 
L 1178 4863 
L 1178 0 
L 603 0 
L 603 4863 
z
" transform="scale(0.015625)"/>
     <path id="DejaVuSans-6e" d="M 3513 2113 
L 3513 0 
L 2938 0 
L 2938 2094 
Q 2938 2591 2744 2837 
Q 2550 3084 2163 3084 
Q 1697 3084 1428 2787 
Q 1159 2491 1159 1978 
L 1159 0 
L 581 0 
L 581 3500 
L 1159 3500 
L 1159 2956 
Q 1366 3272 1645 3428 
Q 1925 3584 2291 3584 
Q 2894 3584 3203 3211 
Q 3513 2838 3513 2113 
z
" transform="scale(0.015625)"/>
     <path id="DejaVuSans-20" transform="scale(0.015625)"/>
     <path id="DejaVuSans-50" d="M 1259 4147 
L 1259 2394 
L 2053 2394 
Q 2494 2394 2734 2622 
Q 2975 2850 2975 3272 
Q 2975 3691 2734 3919 
Q 2494 4147 2053 4147 
L 1259 4147 
z
M 628 4666 
L 2053 4666 
Q 2838 4666 3239 4311 
Q 3641 3956 3641 3272 
Q 3641 2581 3239 2228 
Q 2838 1875 2053 1875 
L 1259 1875 
L 1259 0 
L 628 0 
L 628 4666 
z
" transform="scale(0.015625)"/>
     <path id="DejaVuSans-74" d="M 1172 4494 
L 1172 3500 
L 2356 3500 
L 2356 3053 
L 1172 3053 
L 1172 1153 
Q 1172 725 1289 603 
Q 1406 481 1766 481 
L 2356 481 
L 2356 0 
L 1766 0 
Q 1100 0 847 248 
Q 594 497 594 1153 
L 594 3053 
L 172 3053 
L 172 3500 
L 594 3500 
L 594 4494 
L 1172 4494 
z
" transform="scale(0.015625)"/>
     <path id="DejaVuSans-66" d="M 2375 4863 
L 2375 4384 
L 1825 4384 
Q 1516 4384 1395 4259 
Q 1275 4134 1275 3809 
L 1275 3500 
L 2222 3500 
L 2222 3053 
L 1275 3053 
L 1275 0 
L 697 0 
L 697 3053 
L 147 3053 
L 147 3500 
L 697 3500 
L 697 3744 
Q 697 4328 969 4595 
Q 1241 4863 1831 4863 
L 2375 4863 
z
" transform="scale(0.015625)"/>
     <path id="DejaVuSans-61" d="M 2194 1759 
Q 1497 1759 1228 1600 
Q 959 1441 959 1056 
Q 959 750 1161 570 
Q 1363 391 1709 391 
Q 2188 391 2477 730 
Q 2766 1069 2766 1631 
L 2766 1759 
L 2194 1759 
z
M 3341 1997 
L 3341 0 
L 2766 0 
L 2766 531 
Q 2569 213 2275 61 
Q 1981 -91 1556 -91 
Q 1019 -91 701 211 
Q 384 513 384 1019 
Q 384 1609 779 1909 
Q 1175 2209 1959 2209 
L 2766 2209 
L 2766 2266 
Q 2766 2663 2505 2880 
Q 2244 3097 1772 3097 
Q 1472 3097 1187 3025 
Q 903 2953 641 2809 
L 641 3341 
Q 956 3463 1253 3523 
Q 1550 3584 1831 3584 
Q 2591 3584 2966 3190 
Q 3341 2797 3341 1997 
z
" transform="scale(0.015625)"/>
     <path id="DejaVuSans-43" d="M 4122 4306 
L 4122 3641 
Q 3803 3938 3442 4084 
Q 3081 4231 2675 4231 
Q 1875 4231 1450 3742 
Q 1025 3253 1025 2328 
Q 1025 1406 1450 917 
Q 1875 428 2675 428 
Q 3081 428 3442 575 
Q 3803 722 4122 1019 
L 4122 359 
Q 3791 134 3420 21 
Q 3050 -91 2638 -91 
Q 1578 -91 968 557 
Q 359 1206 359 2328 
Q 359 3453 968 4101 
Q 1578 4750 2638 4750 
Q 3056 4750 3426 4639 
Q 3797 4528 4122 4306 
z
" transform="scale(0.015625)"/>
     <path id="DejaVuSans-75" d="M 544 1381 
L 544 3500 
L 1119 3500 
L 1119 1403 
Q 1119 906 1312 657 
Q 1506 409 1894 409 
Q 2359 409 2629 706 
Q 2900 1003 2900 1516 
L 2900 3500 
L 3475 3500 
L 3475 0 
L 2900 0 
L 2900 538 
Q 2691 219 2414 64 
Q 2138 -91 1772 -91 
Q 1169 -91 856 284 
Q 544 659 544 1381 
z
M 1991 3584 
L 1991 3584 
z
" transform="scale(0.015625)"/>
     <path id="DejaVuSans-73" d="M 2834 3397 
L 2834 2853 
Q 2591 2978 2328 3040 
Q 2066 3103 1784 3103 
Q 1356 3103 1142 2972 
Q 928 2841 928 2578 
Q 928 2378 1081 2264 
Q 1234 2150 1697 2047 
L 1894 2003 
Q 2506 1872 2764 1633 
Q 3022 1394 3022 966 
Q 3022 478 2636 193 
Q 2250 -91 1575 -91 
Q 1294 -91 989 -36 
Q 684 19 347 128 
L 347 722 
Q 666 556 975 473 
Q 1284 391 1588 391 
Q 1994 391 2212 530 
Q 2431 669 2431 922 
Q 2431 1156 2273 1281 
Q 2116 1406 1581 1522 
L 1381 1569 
Q 847 1681 609 1914 
Q 372 2147 372 2553 
Q 372 3047 722 3315 
Q 1072 3584 1716 3584 
Q 2034 3584 2315 3537 
Q 2597 3491 2834 3397 
z
" transform="scale(0.015625)"/>
     <path id="DejaVuSans-72" d="M 2631 2963 
Q 2534 3019 2420 3045 
Q 2306 3072 2169 3072 
Q 1681 3072 1420 2755 
Q 1159 2438 1159 1844 
L 1159 0 
L 581 0 
L 581 3500 
L 1159 3500 
L 1159 2956 
Q 1341 3275 1631 3429 
Q 1922 3584 2338 3584 
Q 2397 3584 2469 3576 
Q 2541 3569 2628 3553 
L 2631 2963 
z
" transform="scale(0.015625)"/>
     <path id="DejaVuSans-62" d="M 3116 1747 
Q 3116 2381 2855 2742 
Q 2594 3103 2138 3103 
Q 1681 3103 1420 2742 
Q 1159 2381 1159 1747 
Q 1159 1113 1420 752 
Q 1681 391 2138 391 
Q 2594 391 2855 752 
Q 3116 1113 3116 1747 
z
M 1159 2969 
Q 1341 3281 1617 3432 
Q 1894 3584 2278 3584 
Q 2916 3584 3314 3078 
Q 3713 2572 3713 1747 
Q 3713 922 3314 415 
Q 2916 -91 2278 -91 
Q 1894 -91 1617 61 
Q 1341 213 1159 525 
L 1159 0 
L 581 0 
L 581 4863 
L 1159 4863 
L 1159 2969 
z
" transform="scale(0.015625)"/>
     <path id="DejaVuSans-65" d="M 3597 1894 
L 3597 1613 
L 953 1613 
Q 991 1019 1311 708 
Q 1631 397 2203 397 
Q 2534 397 2845 478 
Q 3156 559 3463 722 
L 3463 178 
Q 3153 47 2828 -22 
Q 2503 -91 2169 -91 
Q 1331 -91 842 396 
Q 353 884 353 1716 
Q 353 2575 817 3079 
Q 1281 3584 2069 3584 
Q 2775 3584 3186 3129 
Q 3597 2675 3597 1894 
z
M 3022 2063 
Q 3016 2534 2758 2815 
Q 2500 3097 2075 3097 
Q 1594 3097 1305 2825 
Q 1016 2553 972 2059 
L 3022 2063 
z
" transform="scale(0.015625)"/>
    </defs>
    <use xlink:href="#DejaVuSans-56"/>
    <use xlink:href="#DejaVuSans-69" x="66.158203"/>
    <use xlink:href="#DejaVuSans-6f" x="93.941406"/>
    <use xlink:href="#DejaVuSans-6c" x="155.123047"/>
    <use xlink:href="#DejaVuSans-69" x="182.90625"/>
    <use xlink:href="#DejaVuSans-6e" x="210.689453"/>
    <use xlink:href="#DejaVuSans-20" x="274.068359"/>
    <use xlink:href="#DejaVuSans-50" x="305.855469"/>
    <use xlink:href="#DejaVuSans-6c" x="366.158203"/>
    <use xlink:href="#DejaVuSans-6f" x="393.941406"/>
    <use xlink:href="#DejaVuSans-74" x="455.123047"/>
    <use xlink:href="#DejaVuSans-20" x="494.332031"/>
    <use xlink:href="#DejaVuSans-6f" x="526.119141"/>
    <use xlink:href="#DejaVuSans-66" x="587.300781"/>
    <use xlink:href="#DejaVuSans-20" x="622.505859"/>
    <use xlink:href="#DejaVuSans-61" x="654.292969"/>
    <use xlink:href="#DejaVuSans-6c" x="715.572266"/>
    <use xlink:href="#DejaVuSans-6c" x="743.355469"/>
    <use xlink:href="#DejaVuSans-20" x="771.138672"/>
    <use xlink:href="#DejaVuSans-43" x="802.925781"/>
    <use xlink:href="#DejaVuSans-6f" x="872.75"/>
    <use xlink:href="#DejaVuSans-6e" x="933.931641"/>
    <use xlink:href="#DejaVuSans-74" x="997.310547"/>
    <use xlink:href="#DejaVuSans-69" x="1036.519531"/>
    <use xlink:href="#DejaVuSans-6e" x="1064.302734"/>
    <use xlink:href="#DejaVuSans-75" x="1127.681641"/>
    <use xlink:href="#DejaVuSans-6f" x="1191.060547"/>
    <use xlink:href="#DejaVuSans-75" x="1252.242188"/>
    <use xlink:href="#DejaVuSans-73" x="1315.621094"/>
    <use xlink:href="#DejaVuSans-20" x="1367.720703"/>
    <use xlink:href="#DejaVuSans-56" x="1399.507812"/>
    <use xlink:href="#DejaVuSans-61" x="1460.166016"/>
    <use xlink:href="#DejaVuSans-72" x="1521.445312"/>
    <use xlink:href="#DejaVuSans-69" x="1562.558594"/>
    <use xlink:href="#DejaVuSans-61" x="1590.341797"/>
    <use xlink:href="#DejaVuSans-62" x="1651.621094"/>
    <use xlink:href="#DejaVuSans-6c" x="1715.097656"/>
    <use xlink:href="#DejaVuSans-65" x="1742.880859"/>
    <use xlink:href="#DejaVuSans-73" x="1804.404297"/>
   </g>
  </g>
 </g>
 <defs>
  <clipPath id="ped8da4aac9">
   <rect x="45.59" y="40.32" width="1021.45" height="214.42"/>
  </clipPath>
 </defs>
</svg>
